<svg xmlns="http://www.w3.org/2000/svg" version="1.1" xmlns:xlink="http://www.w3.org/1999/xlink" xmlns:svgjs="http://svgjs.dev/svgjs" viewBox="0 0 800 800"><defs><linearGradient x1="50%" y1="0%" x2="50%" y2="100%" id="ffflurry-grad" gradientTransform="rotate(270)"><stop stop-color="hsl(240, 6%, 10%)" stop-opacity="1" offset="0%"></stop><stop stop-color="hsl(335, 77%, 60%)" stop-opacity="1" offset="45%"></stop><stop stop-color="hsl(335, 77%, 80%)" stop-opacity="1" offset="100%"></stop></linearGradient></defs><rect width="100%" height="100%" fill="hsl(240, 6%, 10%)"></rect><g fill="url(#ffflurry-grad)"><rect width="119" height="1" x="621.5" y="117.5" rx="0.5" transform="rotate(45, 681, 118)" opacity="0.62"></rect><rect width="257" height="1" x="536.5" y="363.5" rx="0.5" transform="rotate(45, 665, 364)" opacity="0.27"></rect><rect width="162" height="1" x="335" y="685.5" rx="0.5" transform="rotate(45, 416, 686)" opacity="0.49"></rect><rect width="140" height="1" x="623" y="714.5" rx="0.5" transform="rotate(45, 693, 715)" opacity="0.11"></rect><rect width="833" height="1" x="-293.5" y="181.5" rx="0.5" transform="rotate(45, 123, 182)" opacity="0.79"></rect><rect width="1365" height="1" x="-337.5" y="439.5" rx="0.5" transform="rotate(45, 345, 440)" opacity="0.08"></rect><rect width="1209" height="1" x="-457.5" y="694.5" rx="0.5" transform="rotate(45, 147, 695)" opacity="0.34"></rect><rect width="1291" height="1" x="-189.5" y="183.5" rx="0.5" transform="rotate(45, 456, 184)" opacity="0.84"></rect><rect width="227" height="1" x="-11.5" y="454.5" rx="0.5" transform="rotate(45, 102, 455)" opacity="0.78"></rect><rect width="1350" height="1" x="-54" y="555.5" rx="0.5" transform="rotate(45, 621, 556)" opacity="0.91"></rect><rect width="254" height="1" x="158" y="74.5" rx="0.5" transform="rotate(45, 285, 75)" opacity="0.94"></rect></g></svg>