<svg xmlns="http://www.w3.org/2000/svg" version="1.1" xmlns:xlink="http://www.w3.org/1999/xlink" xmlns:svgjs="http://svgjs.dev/svgjs" viewBox="0 0 800 800" opacity="0.17"><defs><linearGradient x1="50%" y1="0%" x2="50%" y2="100%" id="nnneon-grad"><stop stop-color="hsl(230, 55%, 50%)" stop-opacity="1" offset="0%"></stop><stop stop-color="hsl(230, 55%, 70%)" stop-opacity="1" offset="100%"></stop></linearGradient><filter id="nnneon-filter" x="-100%" y="-100%" width="400%" height="400%" filterUnits="objectBoundingBox" primitiveUnits="userSpaceOnUse" color-interpolation-filters="sRGB">
	<feGaussianBlur stdDeviation="77 77" x="0%" y="0%" width="100%" height="100%" in="SourceGraphic" edgeMode="none" result="blur"></feGaussianBlur></filter><filter id="nnneon-filter2" x="-100%" y="-100%" width="400%" height="400%" filterUnits="objectBoundingBox" primitiveUnits="userSpaceOnUse" color-interpolation-filters="sRGB">
	<feGaussianBlur stdDeviation="77 77" x="0%" y="0%" width="100%" height="100%" in="SourceGraphic" edgeMode="none" result="blur"></feGaussianBlur></filter></defs><g stroke-width="3" stroke="url(#nnneon-grad)" fill="none"><path d="M388.4530107167675 233.46125231926777C395.59828768523175 229.33666774729716 404.40171231476825 229.33666774729716 411.5469892832325 233.46240701819613L538.4530203016707 306.7315181170911C545.5982972701349 310.8561026890618 550.0000095849032 318.48057971278024 550.0000095849032 326.7309035556499V473.2691257534399C550.0000095849032 481.5194495963096 545.5982972701349 489.14392662002797 538.4530203016707 493.26966589092694L411.5469892832325 566.538776989822C404.40171231476825 570.6633615617925 395.59828768523175 570.6633615617925 388.4530107167675 566.5376222908938L261.54697969832927 493.26851119199864C254.401702729865 489.14392662002797 249.99999041509682 481.5194495963096 249.99999041509682 473.2691257534399V326.7309035556499C249.99999041509682 318.48057971278024 254.401702729865 310.8561026890618 261.54697969832927 306.7303634181629L388.4530107167675 233.46125231926777Z " filter="url(#nnneon-filter)"></path><path d="M489.4530107167675 233.46125231926777C496.59828768523175 229.33666774729716 505.40171231476825 229.33666774729716 512.5469892832325 233.46240701819613L639.4530203016707 306.7315181170911C646.5982972701349 310.8561026890618 651.0000095849032 318.48057971278024 651.0000095849032 326.7309035556499V473.2691257534399C651.0000095849032 481.5194495963096 646.5982972701349 489.14392662002797 639.4530203016707 493.26966589092694L512.5469892832325 566.538776989822C505.40171231476825 570.6633615617925 496.59828768523175 570.6633615617925 489.4530107167675 566.5376222908938L362.54697969832927 493.26851119199864C355.401702729865 489.14392662002797 350.9999904150968 481.5194495963096 350.9999904150968 473.2691257534399V326.7309035556499C350.9999904150968 318.48057971278024 355.401702729865 310.8561026890618 362.54697969832927 306.7303634181629L489.4530107167675 233.46125231926777Z " filter="url(#nnneon-filter2)" opacity="1"></path><path d="M287.4530107167675 233.46125231926777C294.59828768523175 229.33666774729716 303.40171231476825 229.33666774729716 310.5469892832325 233.46240701819613L437.4530203016707 306.7315181170911C444.59829727013494 310.8561026890618 449.0000095849032 318.48057971278024 449.0000095849032 326.7309035556499V473.2691257534399C449.0000095849032 481.5194495963096 444.59829727013494 489.14392662002797 437.4530203016707 493.26966589092694L310.5469892832325 566.538776989822C303.40171231476825 570.6633615617925 294.59828768523175 570.6633615617925 287.4530107167675 566.5376222908938L160.54697969832927 493.26851119199864C153.401702729865 489.14392662002797 148.99999041509682 481.5194495963096 148.99999041509682 473.2691257534399V326.7309035556499C148.99999041509682 318.48057971278024 153.401702729865 310.8561026890618 160.54697969832927 306.7303634181629L287.4530107167675 233.46125231926777Z " filter="url(#nnneon-filter2)" opacity="1"></path><path d="M388.4530107167675 233.46125231926777C395.59828768523175 229.33666774729716 404.40171231476825 229.33666774729716 411.5469892832325 233.46240701819613L538.4530203016707 306.7315181170911C545.5982972701349 310.8561026890618 550.0000095849032 318.48057971278024 550.0000095849032 326.7309035556499V473.2691257534399C550.0000095849032 481.5194495963096 545.5982972701349 489.14392662002797 538.4530203016707 493.26966589092694L411.5469892832325 566.538776989822C404.40171231476825 570.6633615617925 395.59828768523175 570.6633615617925 388.4530107167675 566.5376222908938L261.54697969832927 493.26851119199864C254.401702729865 489.14392662002797 249.99999041509682 481.5194495963096 249.99999041509682 473.2691257534399V326.7309035556499C249.99999041509682 318.48057971278024 254.401702729865 310.8561026890618 261.54697969832927 306.7303634181629L388.4530107167675 233.46125231926777Z "></path></g></svg>